<svg width="32" height="32" viewBox="0 0 32 32" fill="none" xmlns="http://www.w3.org/2000/svg">
<path fill-rule="evenodd" clip-rule="evenodd" d="M3.48334 24.5667C4.91667 25.9667 6.64445 26.6667 8.66667 26.6667H24.6667C26.3333 26.6667 27.75 26.0833 28.9167 24.9167C30.0833 23.75 30.6667 22.3333 30.6667 20.6667C30.6667 19.1333 30.1611 17.7944 29.15 16.65C28.1389 15.5056 26.8667 14.8444 25.3333 14.6667C25.3333 12.0667 24.4278 9.86111 22.6167 8.05C20.8056 6.23888 18.6 5.33333 16 5.33333C13.8889 5.33333 12 5.96666 10.3333 7.23333C8.66667 8.5 7.55556 10.1556 7 12.2C5.31111 12.5778 3.94445 13.4444 2.9 14.8C1.85556 16.1556 1.33334 17.7 1.33334 19.4333C1.33334 21.4556 2.05 23.1667 3.48334 24.5667ZM14.9285 23.604C15.2168 23.8922 15.5739 24.0364 16 24.0364C16.4261 24.0364 16.7832 23.8922 17.0715 23.604C17.3597 23.3158 17.5038 22.9586 17.5038 22.5325C17.5038 22.1065 17.3597 21.7493 17.0715 21.4611C16.7832 21.1728 16.4261 21.0287 16 21.0287C15.5739 21.0287 15.2168 21.1728 14.9285 21.4611C14.6403 21.7493 14.4962 22.1065 14.4962 22.5325C14.4962 22.9586 14.6403 23.3158 14.9285 23.604ZM14.4962 10.2991V19.322H17.5038V10.2991H14.4962Z" fill="#212121"/>
</svg>
